<svg width="81" height="36" viewBox="0 0 81 36" fill="none" xmlns="http://www.w3.org/2000/svg">
<path d="M51.5 1H5.5C3.01472 1 1 3.01472 1 5.5V30.5C1 32.9853 3.01472 35 5.5 35H51.5C53.9853 35 56 32.9853 56 30.5V5.5C56 3.01472 53.9853 1 51.5 1Z" fill="#006FCF" stroke="#FFF2F5"/>
<path d="M14.62 15.7484L15.729 18.4354H13.52L14.62 15.7484ZM37.644 15.8601H33.38V17.0447H37.575V18.8193H33.389V20.1398H37.653V21.1983L40.627 17.9828L37.653 14.6312L37.644 15.8601ZM17.502 12.5086H23.224L24.494 15.2801L25.671 12.5H40.524L42.068 14.2044L43.665 12.5H50.487L45.447 18.0172L50.436 23.5H43.512L41.968 21.7955L40.357 23.5H16.137L15.429 21.7955H13.811L13.102 23.5H7.5L12.207 12.5H17.119L17.502 12.5086ZM29.91 14.0526H26.703L24.554 19.1172L22.227 14.0526H19.044V20.9419L16.094 14.0526H13.239L9.827 21.9474H12.055L12.762 20.2429H16.48L17.188 21.9474H21.084V16.3113L23.592 21.956H25.296L27.788 16.3285V21.9574H29.877L29.911 14.0512L29.91 14.0526ZM43.287 18.0172L46.912 14.0526H44.303L42.01 16.5247L39.792 14.0526H31.351V21.956H39.672L41.984 19.4666L44.201 21.956H46.887L43.287 18.0172Z" fill="white"/>
<path d="M79.807 11.6151C80.262 11.0458 80.5709 10.2811 80.4899 9.5C79.8229 9.53309 79.0099 9.93956 78.5389 10.5095C78.1169 10.9974 77.7429 11.7938 77.8399 12.5422C78.5879 12.6071 79.336 12.1685 79.807 11.6151Z" fill="black"/>
</svg>
