<svg width="57" height="34" viewBox="0 0 57 34" fill="none" xmlns="http://www.w3.org/2000/svg">
<path d="M51.5 1H5.5C3.01472 1 1 3.01472 1 5.5V30.5C1 32.9853 3.01472 35 5.5 35H51.5C53.9853 35 56 32.9853 56 30.5V5.5C56 3.01472 53.9853 1 51.5 1Z" fill="white" stroke="#FFF2F5"/>
<path d="M16.482 12.6884C15.395 12.6236 14.472 13.3048 13.953 13.3048C13.434 13.3048 12.639 12.7209 11.78 12.7368C10.662 12.753 9.62397 13.3856 9.05697 14.3912C7.88897 16.4025 8.74797 19.3869 9.88397 21.0252C10.435 21.8362 11.099 22.7283 11.975 22.6961C12.802 22.6637 13.126 22.1609 14.131 22.1609C15.136 22.1609 15.428 22.6961 16.303 22.6799C17.211 22.6637 17.7779 21.8689 18.3299 21.0579C18.9619 20.1334 19.221 19.2413 19.237 19.1926C19.221 19.1764 17.487 18.5111 17.47 16.516C17.454 14.8454 18.832 14.0506 18.897 14.0016C18.119 12.8506 16.9029 12.7209 16.4809 12.6884" fill="black"/>
<path d="M27.312 10.4302C29.673 10.4302 31.317 12.0577 31.317 14.4271C31.317 16.8049 29.639 18.4409 27.253 18.4409H24.639V22.5984H22.75V10.4302H27.312ZM24.639 16.8555H26.806C28.451 16.8555 29.386 15.9703 29.386 14.4355C29.386 12.9011 28.45 12.0239 26.814 12.0239H24.639V16.8555Z" fill="black"/>
<path d="M31.7861 20.0766C31.7861 18.5166 32.9751 17.6228 35.1671 17.4879L37.5201 17.3445V16.6698C37.5201 15.6836 36.8711 15.1438 35.7161 15.1438C34.7621 15.1438 34.0711 15.6327 33.9281 16.383H32.2241C32.2751 14.8064 33.7591 13.6597 35.7661 13.6597C37.9251 13.6597 39.3331 14.7895 39.3331 16.5436V22.5978H37.5881V21.139H37.5461C37.0481 22.0918 35.9511 22.6903 34.7621 22.6903C33.0091 22.6903 31.7861 21.6451 31.7861 20.0766ZM37.5201 19.2925V18.6093L35.4201 18.7443C34.2401 18.8202 33.6251 19.2585 33.6251 20.0257C33.6251 20.7679 34.2651 21.2487 35.2691 21.2487C36.5501 21.2487 37.5201 20.4305 37.5201 19.2925Z" fill="black"/>
<path d="M40.9371 25.8522V24.3937C41.0561 24.4103 41.342 24.4272 41.494 24.4272C42.329 24.4272 42.8011 24.0736 43.0881 23.1623L43.2561 22.6229L40.0601 13.769H42.0331L44.2601 20.9532H44.3021L46.5281 13.769H48.451L45.1371 23.0696C44.3771 25.2031 43.5091 25.9032 41.6711 25.9032C41.5281 25.9032 41.0641 25.8863 40.9371 25.8522Z" fill="black"/>
</svg>
