<svg width="57" height="36" viewBox="0 0 57 36" fill="none" xmlns="http://www.w3.org/2000/svg">
<path d="M51.5 1H5.5C3.01472 1 1 3.01472 1 5.5V30.5C1 32.9853 3.01472 35 5.5 35H51.5C53.9853 35 56 32.9853 56 30.5V5.5C56 3.01472 53.9853 1 51.5 1Z" fill="#5A31F4" stroke="#FFF2F5"/>
<path d="M32.234 14.2454C32.234 16.6344 30.548 18.3389 28.193 18.3389H25.975C25.938 18.3394 25.902 18.3505 25.872 18.3708C25.841 18.3912 25.818 18.4198 25.803 18.4534C25.794 18.4757 25.789 18.4995 25.789 18.5236V21.6632C25.789 21.6876 25.784 21.7117 25.774 21.7342C25.765 21.7568 25.751 21.7772 25.734 21.7944C25.717 21.8115 25.696 21.8251 25.674 21.8343C25.651 21.8435 25.627 21.8482 25.602 21.848H24.05C24 21.848 23.953 21.8284 23.918 21.7934C23.883 21.7585 23.864 21.7112 23.864 21.6618V10.3395C23.863 10.3027 23.874 10.2665 23.894 10.2358C23.915 10.2051 23.944 10.1813 23.978 10.1677C24.001 10.1582 24.025 10.1533 24.05 10.1533H28.203C30.548 10.1533 32.234 11.8563 32.234 14.2454ZM30.297 14.2454C30.297 12.8733 29.355 11.8707 28.077 11.8707H25.975C25.95 11.8707 25.926 11.8755 25.904 11.8848C25.881 11.8942 25.86 11.9079 25.843 11.9252C25.826 11.9425 25.812 11.963 25.803 11.9856C25.793 12.0082 25.789 12.0324 25.789 12.0568V16.4253C25.788 16.4498 25.793 16.4741 25.802 16.4968C25.812 16.5194 25.826 16.5399 25.843 16.5571C25.86 16.5744 25.881 16.5882 25.903 16.5975C25.926 16.6069 25.95 16.6116 25.975 16.6115H28.077C29.355 16.6187 30.297 15.6161 30.297 14.2454ZM32.695 19.6752C32.679 19.3082 32.755 18.9431 32.917 18.6134C33.079 18.2837 33.321 18.0002 33.622 17.7889C34.228 17.3363 35.174 17.1014 36.565 17.0527L38.045 17.0011V16.5671C38.045 15.6977 37.457 15.3311 36.515 15.3311C35.573 15.3311 34.975 15.6619 34.839 16.2048C34.828 16.2429 34.804 16.2762 34.771 16.2994C34.739 16.3227 34.7 16.3348 34.66 16.3337H33.196C33.156 16.3342 33.117 16.3216 33.084 16.2979C33.052 16.2741 33.028 16.2404 33.016 16.2019C33.008 16.1764 33.006 16.1495 33.01 16.1231C33.228 14.8369 34.305 13.8601 36.582 13.8601C39.006 13.8601 39.881 14.9816 39.881 17.12V21.6632C39.881 21.6878 39.876 21.7121 39.866 21.7347C39.856 21.7573 39.842 21.7778 39.825 21.795C39.807 21.8121 39.786 21.8257 39.764 21.8348C39.741 21.8439 39.716 21.8483 39.692 21.848H38.217C38.167 21.848 38.12 21.8284 38.085 21.7934C38.05 21.7585 38.03 21.7112 38.03 21.6618V21.3238C38.031 21.2957 38.023 21.2682 38.007 21.2449C37.992 21.2216 37.969 21.2036 37.943 21.1934C37.917 21.1832 37.889 21.1808 37.862 21.1864C37.834 21.192 37.809 21.2054 37.79 21.2249C37.346 21.7033 36.632 22.0485 35.488 22.0485C33.805 22.0485 32.695 21.1791 32.695 19.6752ZM38.045 18.6912V18.3389L36.127 18.4391C35.117 18.4907 34.53 18.906 34.53 19.6079C34.53 20.2438 35.068 20.5961 36.011 20.5961C37.29 20.5961 38.045 19.9087 38.045 18.6912ZM41.362 25.2797V23.9635C41.362 23.9359 41.369 23.9087 41.381 23.8839C41.393 23.8592 41.411 23.8374 41.432 23.8202C41.453 23.8029 41.478 23.7905 41.505 23.7838C41.532 23.7771 41.56 23.7763 41.587 23.7816C41.813 23.8231 42.042 23.8446 42.273 23.8446C42.668 23.8662 43.059 23.7542 43.382 23.5266C43.706 23.2989 43.943 22.969 44.056 22.5899L44.152 22.2877C44.166 22.2469 44.166 22.2024 44.152 22.1616L41.08 14.3256C41.062 14.2826 41.061 14.2345 41.077 14.1907C41.093 14.147 41.124 14.1108 41.166 14.0893C41.193 14.0748 41.224 14.0675 41.254 14.0678H42.744C42.782 14.0679 42.82 14.0796 42.851 14.1013C42.882 14.123 42.907 14.1538 42.92 14.1895L45.006 19.7167C45.019 19.7538 45.043 19.786 45.075 19.8086C45.107 19.8312 45.145 19.8431 45.185 19.8428C45.224 19.8427 45.262 19.8306 45.294 19.808C45.326 19.7855 45.35 19.7536 45.364 19.7167L47.176 14.2053C47.188 14.1673 47.212 14.1342 47.245 14.111C47.277 14.0878 47.316 14.0757 47.356 14.0764H48.897C48.943 14.0766 48.988 14.0936 49.023 14.1241C49.057 14.1547 49.08 14.1967 49.086 14.2425C49.09 14.2731 49.086 14.304 49.075 14.3328L45.788 23.0353C45.031 25.0592 43.735 25.5748 42.307 25.5748C42.036 25.5823 41.766 25.5504 41.504 25.4802C41.46 25.4695 41.421 25.4433 41.395 25.4065C41.369 25.3697 41.358 25.3248 41.362 25.2797ZM13.883 9.50021C11.929 9.48561 10.043 10.2165 8.60798 11.5441C8.54698 11.5996 8.50899 11.6759 8.50099 11.758C8.49399 11.8402 8.51697 11.9222 8.56697 11.9881L9.45198 13.1898C9.48098 13.2303 9.51798 13.264 9.56098 13.2885C9.60398 13.313 9.65198 13.3277 9.70198 13.3315C9.75098 13.3353 9.80096 13.3282 9.84696 13.3107C9.89396 13.2931 9.93598 13.2655 9.96998 13.2299C10.486 12.718 11.098 12.3138 11.771 12.0408C12.445 11.7679 13.166 11.6316 13.892 11.6401C16.928 11.6401 18.514 13.9088 18.514 16.1518C18.514 18.5866 16.848 20.3025 14.453 20.3355C12.603 20.3355 11.208 19.118 11.208 17.5081C11.209 17.101 11.302 16.6995 11.479 16.3327C11.655 15.966 11.912 15.6433 12.229 15.3883C12.297 15.3329 12.34 15.253 12.348 15.1661C12.357 15.0791 12.331 14.9922 12.276 14.9243L11.345 13.757C11.317 13.7211 11.282 13.6913 11.242 13.6693C11.202 13.6473 11.158 13.6336 11.113 13.6291C11.068 13.6245 11.022 13.6292 10.978 13.6428C10.935 13.6564 10.894 13.6787 10.86 13.7083C10.29 14.1657 9.82897 14.7445 9.51097 15.4027C9.19397 16.0593 9.02899 16.779 9.02799 17.5081C9.02799 20.2796 11.398 22.4524 14.435 22.4696H14.478C18.083 22.4237 20.69 19.7712 20.69 16.146C20.69 12.9277 18.302 9.50021 13.883 9.50021Z" fill="white"/>
</svg>
