<svg width="57" height="29" viewBox="0 0 57 29" fill="none" xmlns="http://www.w3.org/2000/svg">
<path d="M51.5 -6H5.5C3.01472 -6 1 -3.98528 1 -1.5V23.5C1 25.9853 3.01472 28 5.5 28H51.5C53.9853 28 56 25.9853 56 23.5V-1.5C56 -3.98528 53.9853 -6 51.5 -6Z" fill="white" stroke="#FFF2F5"/>
<path d="M34.905 6.3529C35.196 4.8824 34.905 3.8529 34.032 2.97059C33.159 1.94118 31.558 1.5 29.521 1.5H23.556C23.119 1.5 22.828 1.79412 22.683 2.23529L20.5 17.0882C20.5 17.3824 20.646 17.6765 20.937 17.6765H24.865L25.447 12.6765L28.066 9.4412L34.905 6.3529Z" fill="#003087"/>
<path d="M34.905 6.35156L34.614 6.64566C33.886 10.7633 31.413 12.2339 27.921 12.2339H26.32C25.884 12.2339 25.593 12.528 25.447 12.9692L24.574 18.7045L24.283 20.1751C24.283 20.4692 24.429 20.7633 24.72 20.7633H27.7749C28.2119 20.7633 28.503 20.4692 28.503 20.1751V20.028L29.085 16.4986V16.3516C29.085 16.0574 29.521 15.7633 29.812 15.7633H30.2489C33.3039 15.7633 35.632 14.5869 36.214 11.0574C36.505 9.58686 36.36 8.41036 35.632 7.52796C35.487 6.79266 35.196 6.49856 34.905 6.35156Z" fill="#3086C8"/>
<path d="M34.031 6.05888C33.886 5.91178 33.74 5.91178 33.595 5.91178C33.449 5.91178 33.304 5.91178 33.158 5.76468C32.722 5.61768 32.14 5.61768 31.558 5.61768H27.193C27.047 5.61768 26.902 5.61768 26.902 5.76468C26.611 5.91178 26.465 6.05888 26.465 6.35298L25.447 12.8236V12.9706C25.447 12.5294 25.883 12.2353 26.32 12.2353H28.211C31.849 12.2353 34.177 10.7647 34.904 6.64708V6.35298C34.759 6.20588 34.468 6.05888 34.177 6.05888H34.031Z" fill="#012169"/>
</svg>
